# xmcd
#
# Track frame offsets:
#	150
#	22239
#	40936
#	60795
#	81295
#	102896
#	122250
#	143079
#	167697
#	190452
#	225483
#	242117
#	258598
#	280346
#	298275
#	324174
#
# Disc length: 4584 seconds
#
# Revision: 1
# Processed by: cddbd v1.4PL0 Copyright (c) Steve Scherf et al.
# Submitted via: CDmax 2.0
#
DISCID=df11e610
DTITLE=Anita Baker - Greatest Hits By Keith
DYEAR=1900
DGENRE=R&b
TTITLE0=Talk To Me
TTITLE1=Giving You The Best That I Got
TTITLE2=Body And Soul (K's Mix)
TTITLE3=No One To Blame
TTITLE4=Angel
TTITLE5=Sweet Love
TTITLE6=You Belong To Me
TTITLE7=Good Love
TTITLE8=Been So Long
TTITLE9=Fairy Tales
TTITLE10=Rules
TTITLE11=You Belong To Me
TTITLE12=Mystery
TTITLE13=No One In The World
TTITLE14=Rhythm Of Love
TTITLE15=Baby
EXTD=
EXTT0=
EXTT1=
EXTT2=
EXTT3=
EXTT4=
EXTT5=
EXTT6=
EXTT7=
EXTT8=
EXTT9=
EXTT10=
EXTT11=
EXTT12=
EXTT13=
EXTT14=
EXTT15=
PLAYORDER=
